<svg width="30" height="30" viewBox="0 0 30 30" fill="none" xmlns="http://www.w3.org/2000/svg">
<circle cx="15" cy="15" r="15" fill="#5571D8"/>
<path d="M22 15.75C22.4142 15.75 22.75 15.4142 22.75 15C22.75 14.5858 22.4142 14.25 22 14.25V15.75ZM8.46967 14.4697C8.17678 14.7626 8.17678 15.2374 8.46967 15.5303L13.2426 20.3033C13.5355 20.5962 14.0104 20.5962 14.3033 20.3033C14.5962 20.0104 14.5962 19.5355 14.3033 19.2426L10.0607 15L14.3033 10.7574C14.5962 10.4645 14.5962 9.98959 14.3033 9.6967C14.0104 9.40381 13.5355 9.40381 13.2426 9.6967L8.46967 14.4697ZM22 14.25L9 14.25V15.75L22 15.75V14.25Z" fill="white"/>
</svg>
