<svg width="30" height="30" viewBox="0 0 30 30" fill="none" xmlns="http://www.w3.org/2000/svg">
<circle cx="15" cy="15" r="15" fill="#5571D8"/>
<g clip-path="url(#clip0_283_146)">
<path d="M8.00188 10.8125C8.00188 10.3152 8.19942 9.83831 8.55105 9.48667C8.90268 9.13504 9.3796 8.9375 9.87688 8.9375H21.1269C21.6242 8.9375 22.1011 9.13504 22.4527 9.48667C22.8043 9.83831 23.0019 10.3152 23.0019 10.8125V20.1875C23.0019 20.6848 22.8043 21.1617 22.4527 21.5133C22.1011 21.865 21.6242 22.0625 21.1269 22.0625H9.87688C9.3796 22.0625 8.90268 21.865 8.55105 21.5133C8.19942 21.1617 8.00188 20.6848 8.00188 20.1875V10.8125ZM8.93938 19.25V20.1875C8.93938 20.4361 9.03815 20.6746 9.21396 20.8504C9.38978 21.0262 9.62824 21.125 9.87688 21.125H21.1269C21.3755 21.125 21.614 21.0262 21.7898 20.8504C21.9656 20.6746 22.0644 20.4361 22.0644 20.1875V16.9062L18.5234 15.0809C18.4355 15.0369 18.336 15.0216 18.2389 15.0373C18.1418 15.0529 18.0521 15.0987 17.9825 15.1681L14.5044 18.6462L12.0106 16.985C11.9206 16.9251 11.8126 16.8981 11.7049 16.9087C11.5973 16.9193 11.4966 16.9668 11.42 17.0431L8.93938 19.25ZM13.6269 13.1562C13.6269 12.7833 13.4787 12.4256 13.215 12.1619C12.9513 11.8982 12.5936 11.75 12.2206 11.75C11.8477 11.75 11.49 11.8982 11.2263 12.1619C10.9625 12.4256 10.8144 12.7833 10.8144 13.1562C10.8144 13.5292 10.9625 13.8869 11.2263 14.1506C11.49 14.4143 11.8477 14.5625 12.2206 14.5625C12.5936 14.5625 12.9513 14.4143 13.215 14.1506C13.4787 13.8869 13.6269 13.5292 13.6269 13.1562Z" fill="white"/>
</g>
<defs>
<clipPath id="clip0_283_146">
<rect width="15" height="15" fill="white" transform="translate(8 8)"/>
</clipPath>
</defs>
</svg>
