<svg width="432" height="553" viewBox="0 0 432 553" fill="none" xmlns="http://www.w3.org/2000/svg">
<path d="M148.056 10L167.056 1H201.556H235.056V36.5H268.556L266.556 112L213.056 109.5V145.5H268.556V183L294.056 184.5V210.5H271.556V241L334.056 244V347.5H305.056V311H275.556V366.5V389.5H252.056V411.5H228.056V480.5L252.056 480V523.5H214.056V552.5H183.056V545V523.5H174.556H161.056C156.556 523.5 140.056 525.5 134.556 527C129.056 528.5 121.056 529 109.556 528C98.0558 527 102.056 528 92.5558 527C83.0558 526 74.0558 522 71.0558 520C68.6558 518.4 60.7225 512.333 57.0558 509.5C55.5558 507.333 52.2558 502.5 51.0558 500.5C49.5558 498 49.0558 495.5 48.0558 492.5C47.0558 489.5 48.0558 485.5 48.0558 480.5C48.0558 476.5 49.3891 472.5 50.0558 471L52.5558 463C53.0558 461.333 54.2558 457.6 55.0558 456C56.0558 454 56.0558 452.5 56.0558 450.5C56.0558 448.5 52.5558 445 52.5558 444.5C52.5558 444.1 46.2225 438.333 43.0558 435.5C41.8891 434.667 39.4558 432.9 39.0558 432.5C38.6558 432.1 36.8891 430 36.0558 429C35.5558 428.333 34.5558 426.5 34.5558 424.5V420C35.0558 418.167 36.2558 413.9 37.0558 411.5C37.8558 409.1 40.0558 406.833 41.0558 406C41.8891 405.333 43.8558 403.7 45.0558 402.5C46.5558 401 48.0558 402 45.0558 401C42.0558 400 38.0558 399 37.0558 398.5C36.0558 398 32.0558 396 31.0558 395C30.0558 394 29.0558 391 28.0558 389.5C27.0558 388 27.5558 384.5 27.5558 383.5V379C27.8891 378 28.8558 375.7 30.0558 374.5C31.5558 373 35.0558 367.5 36.5558 365.5C38.0558 363.5 39.0558 356.5 40.0558 355C41.0558 353.5 40.5558 351 40.0558 349.5C39.5558 348 39.5558 346.5 39.0558 346L36.5558 343.5C36.0558 343 31.0558 341.5 30.0558 341C29.0558 340.5 21.0558 338.5 20.0558 338.5C19.2558 338.5 13.3891 333.833 10.5558 331.5L5.05579 324L3.05579 319C2.55578 318 1.45577 315.3 1.05577 312.5C0.555766 309 3.55577 305 4.55577 303.5C5.35577 302.3 13.5558 293.333 17.5558 289L35.0558 268.5C45.3891 256 66.2558 230.8 67.0558 230C68.0558 229 70.5558 224.5 71.0558 222.5C71.4558 220.9 71.2224 218.167 71.0558 217L68.5558 204.5L67.0558 193.5L66.5558 179C66.7224 176.167 67.1558 170.3 67.5558 169.5C67.9558 168.7 70.3891 158.167 71.5558 153C72.7224 149.667 75.0558 142.7 75.0558 141.5C75.0558 140.3 78.0558 131.333 79.5558 127L85.5558 109.5L92.0558 93L98.5558 78.5L104.556 65L111.556 51L121.056 36.5L131.056 23.5L139.556 16.5L148.056 10Z" fill="url(#paint0_linear_47_2)" stroke="#3F53BB"/>
<g filter="url(#filter0_d_47_2)">
<rect x="318.66" y="395.824" width="29.1825" height="27.8283" transform="rotate(179.008 318.66 395.824)" fill="#2C4AB5"/>
</g>
<g filter="url(#filter1_d_47_2)">
<rect x="382.188" y="504.389" width="31.6144" height="33.3939" transform="rotate(179.008 382.188 504.389)" fill="#2544B1"/>
</g>
<g filter="url(#filter2_d_47_2)">
<rect x="332.327" y="457.163" width="60.7969" height="31.1677" transform="rotate(179.008 332.327 457.163)" fill="#2544B1"/>
</g>
<g filter="url(#filter3_d_47_2)">
<rect x="410.152" y="332.586" width="50.6586" height="28.9414" transform="rotate(179.008 410.152 332.586)" fill="#4560C2"/>
</g>
<g filter="url(#filter4_d_47_2)">
<rect x="350.679" y="204.937" width="29.1825" height="28.9414" transform="rotate(179.008 350.679 204.937)" fill="#6078CF"/>
</g>
<g filter="url(#filter5_d_47_2)">
<rect x="390.377" y="280.761" width="30.3985" height="56.7697" transform="rotate(179.008 390.377 280.761)" fill="#506AC7"/>
</g>
<g filter="url(#filter6_d_47_2)">
<rect x="397.377" y="433.761" width="30.3985" height="56.7697" transform="rotate(179.008 397.377 433.761)" fill="#2544B1"/>
</g>
<g filter="url(#filter7_d_47_2)">
<path d="M421 119L390.606 119.526L390.086 89.4763L420.48 88.95L421 119Z" fill="#8397DF"/>
</g>
<g filter="url(#filter8_d_47_2)">
<rect x="383.408" y="66.5385" width="30.3985" height="58.5473" transform="rotate(179.008 383.408 66.5385)" fill="#8497DF"/>
</g>
<g filter="url(#filter9_d_47_2)">
<rect x="336.914" y="82.05" width="30.3985" height="30.0545" transform="rotate(179.008 336.914 82.05)" fill="#8B9EE3"/>
</g>
<g filter="url(#filter10_d_47_2)">
<rect x="362.073" y="149.937" width="59.581" height="28.9414" transform="rotate(179.008 362.073 149.937)" fill="#778CDA"/>
</g>
<g filter="url(#filter11_d_47_2)">
<rect x="427.073" y="188.937" width="59.581" height="28.9414" transform="rotate(179.008 427.073 188.937)" fill="#758AD9"/>
</g>
<g filter="url(#filter12_d_47_2)">
<rect x="306.327" y="28.9371" width="32.8303" height="28.9414" transform="rotate(179.008 306.327 28.9371)" fill="#90A2E5"/>
</g>
<path d="M277 547V488H301.866V515.473H334V547H277Z" fill="#2544B1"/>
<path d="M177 9L135 48.5M177 9L217.5 73L191 160M177 9L151.5 134M135 48.5L114.5 101L101.5 160L114.5 221.5M135 48.5L151.5 134M114.5 221.5L45.5 299.5L81 336.5M114.5 221.5L164.5 232.5M114.5 221.5L97.75 279M81 336.5L59.5 369.5L69.5 395.5M81 336.5L97.75 279M81 336.5L135 321.5M81 336.5L69.5 395.5M69.5 395.5L59.5 424.5L69.5 451.5M69.5 395.5L210.5 321.5H217.5M69.5 395.5L191 438M69.5 395.5L164.5 475.5M69.5 451.5L59.5 490L81 510.5M69.5 451.5L81 510.5M81 510.5L109 515L164.5 475.5M164.5 475.5L191 438M191 438L217.5 321.5M217.5 321.5L237.5 221.5L191 160M191 160L164.5 232.5M151.5 134L164.5 232.5M164.5 232.5L97.75 279M164.5 232.5L191 293M164.5 232.5L145 279M97.75 279L135 321.5M97.75 279H145M135 321.5L191 293M135 321.5L145 279M191 293L145 279" stroke="white"/>
<circle cx="237" cy="222" r="4" fill="white"/>
<circle cx="217" cy="322" r="4" fill="white"/>
<circle cx="191" cy="438" r="4" fill="white"/>
<circle cx="165" cy="475" r="4" fill="white"/>
<circle cx="110" cy="515" r="4" fill="white"/>
<circle cx="81" cy="510" r="4" fill="white"/>
<circle cx="60" cy="489" r="4" fill="white"/>
<circle cx="70" cy="452" r="4" fill="white"/>
<circle cx="59" cy="425" r="4" fill="white"/>
<circle cx="70" cy="395" r="4" fill="white"/>
<circle cx="60" cy="369" r="4" fill="white"/>
<circle cx="81" cy="336" r="4" fill="white"/>
<circle cx="135" cy="321" r="4" fill="white"/>
<circle cx="190" cy="293" r="4" fill="white"/>
<circle cx="145" cy="279" r="4" fill="white"/>
<circle cx="98" cy="279" r="4" fill="white"/>
<circle cx="114" cy="222" r="4" fill="white"/>
<circle cx="101" cy="161" r="4" fill="white"/>
<circle cx="152" cy="131" r="4" fill="white"/>
<circle cx="135" cy="50" r="4" fill="white"/>
<circle cx="177" cy="10" r="4" fill="white"/>
<circle cx="217" cy="72" r="4" fill="white"/>
<circle cx="191" cy="161" r="4" fill="white"/>
<path d="M50 299.244C50 301.453 48.2091 303.244 46 303.244C43.7909 303.244 42 301.453 42 299.244C42 297.035 43.7909 295.244 46 295.244C48.2091 295.244 50 297.035 50 299.244Z" fill="white"/>
<path d="M50 299.244C50 301.453 46 303.244 46 303.244C46 303.244 42 301.453 42 299.244C42 297.035 43.7909 295.244 46 295.244C48.2091 295.244 50 297.035 50 299.244Z" fill="white"/>
<path d="M168 233.5C168 235.709 164 237.5 164 237.5C164 237.5 160 235.709 160 233.5C160 231.291 161.791 229.5 164 229.5C166.209 229.5 168 231.291 168 233.5Z" fill="white"/>
<path d="M50 299.244C50 301.453 48.2091 303.244 46 303.244C43.7909 303.244 42 301.453 42 299.244C42 297.035 43.7909 295.244 46 295.244C48.2091 295.244 50 297.035 50 299.244Z" fill="white"/>
<path d="M50 299.244C50 301.453 46 303.244 46 303.244C46 303.244 42 301.453 42 299.244C42 297.035 43.7909 295.244 46 295.244C48.2091 295.244 50 297.035 50 299.244Z" fill="white"/>
<path d="M168 233.5C168 235.709 164 237.5 164 237.5C164 237.5 160 235.709 160 233.5C160 231.291 161.791 229.5 164 229.5C166.209 229.5 168 231.291 168 233.5Z" fill="white"/>
<defs>
<filter id="filter0_d_47_2" x="285" y="368" width="37.6602" height="36.3294" filterUnits="userSpaceOnUse" color-interpolation-filters="sRGB">
<feFlood flood-opacity="0" result="BackgroundImageFix"/>
<feColorMatrix in="SourceAlpha" type="matrix" values="0 0 0 0 0 0 0 0 0 0 0 0 0 0 0 0 0 0 127 0" result="hardAlpha"/>
<feOffset dy="4"/>
<feGaussianBlur stdDeviation="2"/>
<feComposite in2="hardAlpha" operator="out"/>
<feColorMatrix type="matrix" values="0 0 0 0 0 0 0 0 0 0 0 0 0 0 0 0 0 0 0.25 0"/>
<feBlend mode="normal" in2="BackgroundImageFix" result="effect1_dropShadow_47_2"/>
<feBlend mode="normal" in="SourceGraphic" in2="effect1_dropShadow_47_2" result="shape"/>
</filter>
<filter id="filter1_d_47_2" x="346" y="471" width="40.188" height="41.9363" filterUnits="userSpaceOnUse" color-interpolation-filters="sRGB">
<feFlood flood-opacity="0" result="BackgroundImageFix"/>
<feColorMatrix in="SourceAlpha" type="matrix" values="0 0 0 0 0 0 0 0 0 0 0 0 0 0 0 0 0 0 127 0" result="hardAlpha"/>
<feOffset dy="4"/>
<feGaussianBlur stdDeviation="2"/>
<feComposite in2="hardAlpha" operator="out"/>
<feColorMatrix type="matrix" values="0 0 0 0 0 0 0 0 0 0 0 0 0 0 0 0 0 0 0.25 0"/>
<feBlend mode="normal" in2="BackgroundImageFix" result="effect1_dropShadow_47_2"/>
<feBlend mode="normal" in="SourceGraphic" in2="effect1_dropShadow_47_2" result="shape"/>
</filter>
<filter id="filter2_d_47_2" x="267" y="426" width="69.3276" height="40.2157" filterUnits="userSpaceOnUse" color-interpolation-filters="sRGB">
<feFlood flood-opacity="0" result="BackgroundImageFix"/>
<feColorMatrix in="SourceAlpha" type="matrix" values="0 0 0 0 0 0 0 0 0 0 0 0 0 0 0 0 0 0 127 0" result="hardAlpha"/>
<feOffset dy="4"/>
<feGaussianBlur stdDeviation="2"/>
<feComposite in2="hardAlpha" operator="out"/>
<feColorMatrix type="matrix" values="0 0 0 0 0 0 0 0 0 0 0 0 0 0 0 0 0 0 0.25 0"/>
<feBlend mode="normal" in2="BackgroundImageFix" result="effect1_dropShadow_47_2"/>
<feBlend mode="normal" in="SourceGraphic" in2="effect1_dropShadow_47_2" result="shape"/>
</filter>
<filter id="filter3_d_47_2" x="355" y="303.649" width="59.1519" height="37.8142" filterUnits="userSpaceOnUse" color-interpolation-filters="sRGB">
<feFlood flood-opacity="0" result="BackgroundImageFix"/>
<feColorMatrix in="SourceAlpha" type="matrix" values="0 0 0 0 0 0 0 0 0 0 0 0 0 0 0 0 0 0 127 0" result="hardAlpha"/>
<feOffset dy="4"/>
<feGaussianBlur stdDeviation="2"/>
<feComposite in2="hardAlpha" operator="out"/>
<feColorMatrix type="matrix" values="0 0 0 0 0 0 0 0 0 0 0 0 0 0 0 0 0 0 0.25 0"/>
<feBlend mode="normal" in2="BackgroundImageFix" result="effect1_dropShadow_47_2"/>
<feBlend mode="normal" in="SourceGraphic" in2="effect1_dropShadow_47_2" result="shape"/>
</filter>
<filter id="filter4_d_47_2" x="317" y="176" width="37.6792" height="37.4424" filterUnits="userSpaceOnUse" color-interpolation-filters="sRGB">
<feFlood flood-opacity="0" result="BackgroundImageFix"/>
<feColorMatrix in="SourceAlpha" type="matrix" values="0 0 0 0 0 0 0 0 0 0 0 0 0 0 0 0 0 0 127 0" result="hardAlpha"/>
<feOffset dy="4"/>
<feGaussianBlur stdDeviation="2"/>
<feComposite in2="hardAlpha" operator="out"/>
<feColorMatrix type="matrix" values="0 0 0 0 0 0 0 0 0 0 0 0 0 0 0 0 0 0 0.25 0"/>
<feBlend mode="normal" in2="BackgroundImageFix" result="effect1_dropShadow_47_2"/>
<feBlend mode="normal" in="SourceGraphic" in2="effect1_dropShadow_47_2" result="shape"/>
</filter>
<filter id="filter5_d_47_2" x="355" y="224" width="39.377" height="65.2875" filterUnits="userSpaceOnUse" color-interpolation-filters="sRGB">
<feFlood flood-opacity="0" result="BackgroundImageFix"/>
<feColorMatrix in="SourceAlpha" type="matrix" values="0 0 0 0 0 0 0 0 0 0 0 0 0 0 0 0 0 0 127 0" result="hardAlpha"/>
<feOffset dy="4"/>
<feGaussianBlur stdDeviation="2"/>
<feComposite in2="hardAlpha" operator="out"/>
<feColorMatrix type="matrix" values="0 0 0 0 0 0 0 0 0 0 0 0 0 0 0 0 0 0 0.25 0"/>
<feBlend mode="normal" in2="BackgroundImageFix" result="effect1_dropShadow_47_2"/>
<feBlend mode="normal" in="SourceGraphic" in2="effect1_dropShadow_47_2" result="shape"/>
</filter>
<filter id="filter6_d_47_2" x="362" y="377" width="39.377" height="65.2875" filterUnits="userSpaceOnUse" color-interpolation-filters="sRGB">
<feFlood flood-opacity="0" result="BackgroundImageFix"/>
<feColorMatrix in="SourceAlpha" type="matrix" values="0 0 0 0 0 0 0 0 0 0 0 0 0 0 0 0 0 0 127 0" result="hardAlpha"/>
<feOffset dy="4"/>
<feGaussianBlur stdDeviation="2"/>
<feComposite in2="hardAlpha" operator="out"/>
<feColorMatrix type="matrix" values="0 0 0 0 0 0 0 0 0 0 0 0 0 0 0 0 0 0 0.25 0"/>
<feBlend mode="normal" in2="BackgroundImageFix" result="effect1_dropShadow_47_2"/>
<feBlend mode="normal" in="SourceGraphic" in2="effect1_dropShadow_47_2" result="shape"/>
</filter>
<filter id="filter7_d_47_2" x="386.086" y="88.95" width="38.9141" height="38.5764" filterUnits="userSpaceOnUse" color-interpolation-filters="sRGB">
<feFlood flood-opacity="0" result="BackgroundImageFix"/>
<feColorMatrix in="SourceAlpha" type="matrix" values="0 0 0 0 0 0 0 0 0 0 0 0 0 0 0 0 0 0 127 0" result="hardAlpha"/>
<feOffset dy="4"/>
<feGaussianBlur stdDeviation="2"/>
<feComposite in2="hardAlpha" operator="out"/>
<feColorMatrix type="matrix" values="0 0 0 0 0 0 0 0 0 0 0 0 0 0 0 0 0 0 0.25 0"/>
<feBlend mode="normal" in2="BackgroundImageFix" result="effect1_dropShadow_47_2"/>
<feBlend mode="normal" in="SourceGraphic" in2="effect1_dropShadow_47_2" result="shape"/>
</filter>
<filter id="filter8_d_47_2" x="348" y="8" width="39.4077" height="67.0648" filterUnits="userSpaceOnUse" color-interpolation-filters="sRGB">
<feFlood flood-opacity="0" result="BackgroundImageFix"/>
<feColorMatrix in="SourceAlpha" type="matrix" values="0 0 0 0 0 0 0 0 0 0 0 0 0 0 0 0 0 0 127 0" result="hardAlpha"/>
<feOffset dy="4"/>
<feGaussianBlur stdDeviation="2"/>
<feComposite in2="hardAlpha" operator="out"/>
<feColorMatrix type="matrix" values="0 0 0 0 0 0 0 0 0 0 0 0 0 0 0 0 0 0 0.25 0"/>
<feBlend mode="normal" in2="BackgroundImageFix" result="effect1_dropShadow_47_2"/>
<feBlend mode="normal" in="SourceGraphic" in2="effect1_dropShadow_47_2" result="shape"/>
</filter>
<filter id="filter9_d_47_2" x="302" y="52" width="38.9141" height="38.5764" filterUnits="userSpaceOnUse" color-interpolation-filters="sRGB">
<feFlood flood-opacity="0" result="BackgroundImageFix"/>
<feColorMatrix in="SourceAlpha" type="matrix" values="0 0 0 0 0 0 0 0 0 0 0 0 0 0 0 0 0 0 127 0" result="hardAlpha"/>
<feOffset dy="4"/>
<feGaussianBlur stdDeviation="2"/>
<feComposite in2="hardAlpha" operator="out"/>
<feColorMatrix type="matrix" values="0 0 0 0 0 0 0 0 0 0 0 0 0 0 0 0 0 0 0.25 0"/>
<feBlend mode="normal" in2="BackgroundImageFix" result="effect1_dropShadow_47_2"/>
<feBlend mode="normal" in="SourceGraphic" in2="effect1_dropShadow_47_2" result="shape"/>
</filter>
<filter id="filter10_d_47_2" x="298" y="121" width="68.0732" height="37.9687" filterUnits="userSpaceOnUse" color-interpolation-filters="sRGB">
<feFlood flood-opacity="0" result="BackgroundImageFix"/>
<feColorMatrix in="SourceAlpha" type="matrix" values="0 0 0 0 0 0 0 0 0 0 0 0 0 0 0 0 0 0 127 0" result="hardAlpha"/>
<feOffset dy="4"/>
<feGaussianBlur stdDeviation="2"/>
<feComposite in2="hardAlpha" operator="out"/>
<feColorMatrix type="matrix" values="0 0 0 0 0 0 0 0 0 0 0 0 0 0 0 0 0 0 0.25 0"/>
<feBlend mode="normal" in2="BackgroundImageFix" result="effect1_dropShadow_47_2"/>
<feBlend mode="normal" in="SourceGraphic" in2="effect1_dropShadow_47_2" result="shape"/>
</filter>
<filter id="filter11_d_47_2" x="363" y="160" width="68.0732" height="37.9687" filterUnits="userSpaceOnUse" color-interpolation-filters="sRGB">
<feFlood flood-opacity="0" result="BackgroundImageFix"/>
<feColorMatrix in="SourceAlpha" type="matrix" values="0 0 0 0 0 0 0 0 0 0 0 0 0 0 0 0 0 0 127 0" result="hardAlpha"/>
<feOffset dy="4"/>
<feGaussianBlur stdDeviation="2"/>
<feComposite in2="hardAlpha" operator="out"/>
<feColorMatrix type="matrix" values="0 0 0 0 0 0 0 0 0 0 0 0 0 0 0 0 0 0 0.25 0"/>
<feBlend mode="normal" in2="BackgroundImageFix" result="effect1_dropShadow_47_2"/>
<feBlend mode="normal" in="SourceGraphic" in2="effect1_dropShadow_47_2" result="shape"/>
</filter>
<filter id="filter12_d_47_2" x="269" y="0" width="41.3267" height="37.5055" filterUnits="userSpaceOnUse" color-interpolation-filters="sRGB">
<feFlood flood-opacity="0" result="BackgroundImageFix"/>
<feColorMatrix in="SourceAlpha" type="matrix" values="0 0 0 0 0 0 0 0 0 0 0 0 0 0 0 0 0 0 127 0" result="hardAlpha"/>
<feOffset dy="4"/>
<feGaussianBlur stdDeviation="2"/>
<feComposite in2="hardAlpha" operator="out"/>
<feColorMatrix type="matrix" values="0 0 0 0 0 0 0 0 0 0 0 0 0 0 0 0 0 0 0.25 0"/>
<feBlend mode="normal" in2="BackgroundImageFix" result="effect1_dropShadow_47_2"/>
<feBlend mode="normal" in="SourceGraphic" in2="effect1_dropShadow_47_2" result="shape"/>
</filter>
<linearGradient id="paint0_linear_47_2" x1="167.528" y1="1" x2="167.528" y2="552.5" gradientUnits="userSpaceOnUse">
<stop stop-color="#5571D8" stop-opacity="0.63"/>
<stop offset="0.71355" stop-color="#2544B1"/>
<stop offset="0.9997" stop-color="#2544B1"/>
</linearGradient>
</defs>
</svg>
