<svg width="245" height="67" viewBox="0 0 245 67" fill="none" xmlns="http://www.w3.org/2000/svg">
<path d="M18.3097 18.2756C18.196 17.1297 17.7083 16.2396 16.8466 15.6051C15.9848 14.9706 14.8153 14.6534 13.3381 14.6534C12.3343 14.6534 11.4867 14.7955 10.7955 15.0795C10.1042 15.3542 9.57386 15.7377 9.20455 16.2301C8.8447 16.7225 8.66477 17.2812 8.66477 17.9062C8.64583 18.4271 8.75473 18.8816 8.99148 19.2699C9.23769 19.6581 9.57386 19.9943 10 20.2784C10.4261 20.553 10.9186 20.7945 11.4773 21.0028C12.036 21.2017 12.6326 21.3722 13.267 21.5142L15.8807 22.1392C17.1496 22.4233 18.3144 22.8021 19.375 23.2756C20.4356 23.7491 21.3542 24.3314 22.1307 25.0227C22.9072 25.714 23.5085 26.5284 23.9347 27.4659C24.3703 28.4034 24.5928 29.4782 24.6023 30.6903C24.5928 32.4706 24.1383 34.0142 23.2386 35.321C22.3485 36.6184 21.0606 37.6269 19.375 38.3466C17.6989 39.0568 15.6771 39.4119 13.3097 39.4119C10.9612 39.4119 8.91572 39.0521 7.1733 38.3324C5.44034 37.6127 4.08617 36.5473 3.1108 35.1364C2.14489 33.7159 1.63826 31.9593 1.59091 29.8665H7.54261C7.6089 30.8419 7.88826 31.6562 8.38068 32.3097C8.88258 32.9536 9.55019 33.4413 10.3835 33.7727C11.2263 34.0947 12.178 34.2557 13.2386 34.2557C14.2803 34.2557 15.1847 34.1042 15.9517 33.8011C16.7282 33.4981 17.3295 33.0767 17.7557 32.5369C18.1818 31.9972 18.3949 31.3769 18.3949 30.6761C18.3949 30.0227 18.2008 29.4735 17.8125 29.0284C17.4337 28.5833 16.875 28.2045 16.1364 27.892C15.4072 27.5795 14.5123 27.2955 13.4517 27.0398L10.2841 26.2443C7.83144 25.6477 5.89489 24.715 4.47443 23.446C3.05398 22.1771 2.34848 20.4678 2.35795 18.3182C2.34848 16.5568 2.81723 15.018 3.7642 13.7017C4.72064 12.3854 6.0322 11.358 7.69886 10.6193C9.36553 9.88068 11.2595 9.51136 13.3807 9.51136C15.5398 9.51136 17.4242 9.88068 19.0341 10.6193C20.6534 11.358 21.9129 12.3854 22.8125 13.7017C23.7121 15.018 24.1761 16.5426 24.2045 18.2756H18.3097ZM34.1087 32.7216L34.1229 25.4631H35.0036L41.9922 17.1818H48.9382L39.549 28.1477H38.1143L34.1087 32.7216ZM28.6257 39V9.90909H34.6768V39H28.6257ZM42.2621 39L35.8416 29.4972L39.8757 25.2216L49.3501 39H42.2621ZM51.907 39V17.1818H57.9581V39H51.907ZM54.9467 14.3693C54.0471 14.3693 53.2753 14.071 52.6314 13.4744C51.9969 12.8684 51.6797 12.1439 51.6797 11.3011C51.6797 10.4678 51.9969 9.75284 52.6314 9.15625C53.2753 8.55019 54.0471 8.24716 54.9467 8.24716C55.8464 8.24716 56.6134 8.55019 57.2479 9.15625C57.8918 9.75284 58.2138 10.4678 58.2138 11.3011C58.2138 12.1439 57.8918 12.8684 57.2479 13.4744C56.6134 14.071 55.8464 14.3693 54.9467 14.3693ZM68.8565 26.3864V39H62.8054V17.1818H68.5724V21.0312H68.8281C69.3111 19.7623 70.1207 18.7585 71.2571 18.0199C72.3935 17.2718 73.7713 16.8977 75.3906 16.8977C76.9058 16.8977 78.2268 17.2292 79.3537 17.892C80.4806 18.5549 81.3565 19.5019 81.9815 20.733C82.6065 21.9545 82.919 23.4129 82.919 25.108V39H76.8679V26.1875C76.8774 24.8523 76.5365 23.8106 75.8452 23.0625C75.1539 22.3049 74.2022 21.9261 72.9901 21.9261C72.1757 21.9261 71.456 22.1013 70.831 22.4517C70.2154 22.8021 69.7325 23.3134 69.3821 23.9858C69.0412 24.6487 68.866 25.4489 68.8565 26.3864Z" fill="#424242"/>
<path d="M107.092 19.3125C106.893 18.6212 106.613 18.0104 106.254 17.4801C105.894 16.9403 105.453 16.4858 104.933 16.1165C104.421 15.7377 103.834 15.4489 103.171 15.25C102.518 15.0511 101.793 14.9517 100.998 14.9517C99.5111 14.9517 98.2043 15.321 97.0774 16.0597C95.96 16.7983 95.0888 17.8731 94.4638 19.2841C93.8388 20.6856 93.5263 22.3996 93.5263 24.4261C93.5263 26.4527 93.834 28.1761 94.4496 29.5966C95.0651 31.017 95.9363 32.1013 97.0632 32.8494C98.1901 33.5881 99.5206 33.9574 101.055 33.9574C102.447 33.9574 103.635 33.7112 104.62 33.2188C105.614 32.7169 106.372 32.0114 106.893 31.1023C107.423 30.1932 107.688 29.1184 107.688 27.8778L108.938 28.0625H101.438V23.4318H113.612V27.0966C113.612 29.6534 113.072 31.8504 111.992 33.6875C110.913 35.5152 109.426 36.9261 107.532 37.9205C105.638 38.9053 103.469 39.3977 101.026 39.3977C98.299 39.3977 95.9032 38.7964 93.8388 37.5938C91.7744 36.3816 90.1645 34.6629 89.0092 32.4375C87.8634 30.2027 87.2905 27.5511 87.2905 24.483C87.2905 22.125 87.6314 20.0227 88.3132 18.1761C89.0045 16.3201 89.9704 14.7481 91.2109 13.4602C92.4515 12.1723 93.8956 11.1922 95.5433 10.5199C97.1911 9.84754 98.9761 9.51136 100.898 9.51136C102.546 9.51136 104.08 9.75284 105.501 10.2358C106.921 10.7093 108.181 11.3816 109.279 12.2528C110.387 13.1241 111.291 14.161 111.992 15.3636C112.693 16.5568 113.143 17.8731 113.342 19.3125H107.092ZM127.976 39.4261C125.769 39.4261 123.861 38.9574 122.251 38.0199C120.651 37.0729 119.415 35.7566 118.544 34.071C117.673 32.3759 117.237 30.411 117.237 28.1761C117.237 25.9223 117.673 23.9527 118.544 22.267C119.415 20.572 120.651 19.2557 122.251 18.3182C123.861 17.3712 125.769 16.8977 127.976 16.8977C130.182 16.8977 132.086 17.3712 133.686 18.3182C135.296 19.2557 136.536 20.572 137.408 22.267C138.279 23.9527 138.714 25.9223 138.714 28.1761C138.714 30.411 138.279 32.3759 137.408 34.071C136.536 35.7566 135.296 37.0729 133.686 38.0199C132.086 38.9574 130.182 39.4261 127.976 39.4261ZM128.004 34.7386C129.008 34.7386 129.846 34.4545 130.518 33.8864C131.191 33.3087 131.697 32.5227 132.038 31.5284C132.389 30.5341 132.564 29.4025 132.564 28.1335C132.564 26.8646 132.389 25.733 132.038 24.7386C131.697 23.7443 131.191 22.9583 130.518 22.3807C129.846 21.803 129.008 21.5142 128.004 21.5142C126.991 21.5142 126.139 21.803 125.447 22.3807C124.766 22.9583 124.25 23.7443 123.899 24.7386C123.558 25.733 123.388 26.8646 123.388 28.1335C123.388 29.4025 123.558 30.5341 123.899 31.5284C124.25 32.5227 124.766 33.3087 125.447 33.8864C126.139 34.4545 126.991 34.7386 128.004 34.7386ZM142.649 39V17.1818H148.516V20.9886H148.743C149.141 19.6345 149.808 18.6117 150.746 17.9205C151.683 17.2197 152.763 16.8693 153.984 16.8693C154.287 16.8693 154.614 16.8883 154.964 16.9261C155.315 16.964 155.623 17.0161 155.888 17.0824V22.4517C155.604 22.3665 155.211 22.2907 154.709 22.2244C154.207 22.1581 153.748 22.125 153.331 22.125C152.441 22.125 151.645 22.3191 150.945 22.7074C150.253 23.0862 149.704 23.6165 149.297 24.2983C148.899 24.9801 148.7 25.7661 148.7 26.6562V39H142.649ZM159.016 39V17.1818H165.067V39H159.016ZM162.056 14.3693C161.156 14.3693 160.385 14.071 159.741 13.4744C159.106 12.8684 158.789 12.1439 158.789 11.3011C158.789 10.4678 159.106 9.75284 159.741 9.15625C160.385 8.55019 161.156 8.24716 162.056 8.24716C162.956 8.24716 163.723 8.55019 164.357 9.15625C165.001 9.75284 165.323 10.4678 165.323 11.3011C165.323 12.1439 165.001 12.8684 164.357 13.4744C163.723 14.071 162.956 14.3693 162.056 14.3693ZM181.52 17.1818V21.7273H168.381V17.1818H181.52ZM171.364 11.9545H177.415V32.2955C177.415 32.8542 177.5 33.2898 177.67 33.6023C177.841 33.9053 178.078 34.1184 178.381 34.2415C178.693 34.3646 179.053 34.4261 179.46 34.4261C179.744 34.4261 180.028 34.4025 180.312 34.3551C180.597 34.2983 180.814 34.2557 180.966 34.2273L181.918 38.7301C181.615 38.8248 181.188 38.9337 180.639 39.0568C180.09 39.1894 179.422 39.2699 178.636 39.2983C177.178 39.3551 175.9 39.161 174.801 38.7159C173.712 38.2708 172.865 37.5795 172.259 36.642C171.652 35.7045 171.354 34.5208 171.364 33.0909V11.9545ZM191.982 26.3864V39H185.93V9.90909H191.811V21.0312H192.067C192.559 19.7434 193.355 18.7348 194.453 18.0057C195.552 17.267 196.929 16.8977 198.587 16.8977C200.102 16.8977 201.423 17.2292 202.55 17.892C203.686 18.5455 204.567 19.4877 205.192 20.7188C205.826 21.9403 206.139 23.4034 206.129 25.108V39H200.078V26.1875C200.088 24.8428 199.747 23.7964 199.055 23.0483C198.374 22.3002 197.417 21.9261 196.186 21.9261C195.362 21.9261 194.633 22.1013 193.999 22.4517C193.374 22.8021 192.881 23.3134 192.521 23.9858C192.171 24.6487 191.991 25.4489 191.982 26.3864ZM210.891 39V17.1818H216.658V21.0312H216.914C217.369 19.7528 218.126 18.7443 219.187 18.0057C220.247 17.267 221.516 16.8977 222.994 16.8977C224.49 16.8977 225.763 17.2718 226.815 18.0199C227.866 18.7585 228.567 19.7623 228.917 21.0312H229.144C229.589 19.7812 230.394 18.7822 231.559 18.0341C232.733 17.2765 234.121 16.8977 235.721 16.8977C237.757 16.8977 239.409 17.5464 240.678 18.8438C241.957 20.1316 242.596 21.9593 242.596 24.3267V39H236.559V25.5199C236.559 24.3078 236.237 23.3987 235.593 22.7926C234.949 22.1866 234.144 21.8835 233.178 21.8835C232.08 21.8835 231.223 22.2339 230.607 22.9347C229.992 23.6259 229.684 24.5398 229.684 25.6761V39H223.817V25.392C223.817 24.322 223.51 23.4697 222.894 22.8352C222.288 22.2008 221.488 21.8835 220.494 21.8835C219.821 21.8835 219.215 22.054 218.675 22.3949C218.145 22.7263 217.724 23.1951 217.411 23.8011C217.099 24.3977 216.942 25.0985 216.942 25.9034V39H210.891Z" fill="#2544B1"/>
<path d="M4.47727 59.8182L4.45455 58.1591H4.72727L8.54545 54.2727H10.2045L6.13636 58.3864H6.02273L4.47727 59.8182ZM3.22727 63V51.3636H4.56818V63H3.22727ZM8.77273 63L5.36364 58.6818L6.31818 57.75L10.4773 63H8.77273ZM14.0713 57.75V63H12.7304V54.2727H14.0259V55.6364H14.1395C14.344 55.1932 14.6546 54.8371 15.0713 54.5682C15.488 54.2955 16.0259 54.1591 16.6849 54.1591C17.2759 54.1591 17.7929 54.2803 18.2361 54.5227C18.6793 54.7614 19.024 55.125 19.2702 55.6136C19.5164 56.0985 19.6395 56.7121 19.6395 57.4545V63H18.2986V57.5455C18.2986 56.8598 18.1205 56.3258 17.7645 55.9432C17.4084 55.5568 16.9198 55.3636 16.2986 55.3636C15.8705 55.3636 15.488 55.4564 15.1509 55.642C14.8175 55.8277 14.5543 56.0985 14.3611 56.4545C14.1679 56.8106 14.0713 57.2424 14.0713 57.75ZM26.4352 63.1818C25.6473 63.1818 24.9561 62.9943 24.3614 62.6193C23.7705 62.2443 23.3083 61.7197 22.975 61.0455C22.6455 60.3712 22.4807 59.5833 22.4807 58.6818C22.4807 57.7727 22.6455 56.9792 22.975 56.3011C23.3083 55.6231 23.7705 55.0966 24.3614 54.7216C24.9561 54.3466 25.6473 54.1591 26.4352 54.1591C27.2231 54.1591 27.9125 54.3466 28.5034 54.7216C29.0981 55.0966 29.5602 55.6231 29.8898 56.3011C30.2231 56.9792 30.3898 57.7727 30.3898 58.6818C30.3898 59.5833 30.2231 60.3712 29.8898 61.0455C29.5602 61.7197 29.0981 62.2443 28.5034 62.6193C27.9125 62.9943 27.2231 63.1818 26.4352 63.1818ZM26.4352 61.9773C27.0337 61.9773 27.5261 61.8239 27.9125 61.517C28.2989 61.2102 28.5848 60.8068 28.7705 60.3068C28.9561 59.8068 29.0489 59.2652 29.0489 58.6818C29.0489 58.0985 28.9561 57.5549 28.7705 57.0511C28.5848 56.5473 28.2989 56.1402 27.9125 55.8295C27.5261 55.5189 27.0337 55.3636 26.4352 55.3636C25.8367 55.3636 25.3443 55.5189 24.958 55.8295C24.5716 56.1402 24.2856 56.5473 24.1 57.0511C23.9144 57.5549 23.8216 58.0985 23.8216 58.6818C23.8216 59.2652 23.9144 59.8068 24.1 60.3068C24.2856 60.8068 24.5716 61.2102 24.958 61.517C25.3443 61.8239 25.8367 61.9773 26.4352 61.9773ZM34.917 63L32.258 54.2727H33.667L35.5534 60.9545H35.6443L37.508 54.2727H38.9398L40.7807 60.9318H40.8716L42.758 54.2727H44.167L41.508 63H40.1898L38.2807 56.2955H38.1443L36.2352 63H34.917ZM54.017 63L51.358 54.2727H52.767L54.6534 60.9545H54.7443L56.608 54.2727H58.0398L59.8807 60.9318H59.9716L61.858 54.2727H63.267L60.608 63H59.2898L57.3807 56.2955H57.2443L55.3352 63H54.017ZM67.1807 57.75V63H65.8398V51.3636H67.1807V55.6364H67.2943C67.4989 55.1856 67.8057 54.8277 68.2148 54.5625C68.6277 54.2936 69.1769 54.1591 69.8625 54.1591C70.4572 54.1591 70.978 54.2784 71.425 54.517C71.872 54.7519 72.2186 55.1136 72.4648 55.6023C72.7148 56.0871 72.8398 56.7045 72.8398 57.4545V63H71.4989V57.5455C71.4989 56.8523 71.3189 56.3163 70.9591 55.9375C70.603 55.5549 70.1087 55.3636 69.4761 55.3636C69.0367 55.3636 68.6428 55.4564 68.2943 55.642C67.9496 55.8277 67.6769 56.0985 67.4761 56.4545C67.2792 56.8106 67.1807 57.2424 67.1807 57.75ZM78.6611 63.2045C78.108 63.2045 77.6062 63.1004 77.1554 62.892C76.7046 62.6799 76.3467 62.375 76.0815 61.9773C75.8164 61.5758 75.6838 61.0909 75.6838 60.5227C75.6838 60.0227 75.7823 59.6174 75.9793 59.3068C76.1762 58.9924 76.4395 58.7462 76.769 58.5682C77.0986 58.3902 77.4622 58.2576 77.8599 58.1705C78.2615 58.0795 78.6649 58.0076 79.0702 57.9545C79.6005 57.8864 80.0304 57.8352 80.3599 57.8011C80.6933 57.7633 80.9357 57.7008 81.0872 57.6136C81.2425 57.5265 81.3202 57.375 81.3202 57.1591V57.1136C81.3202 56.553 81.1668 56.1174 80.8599 55.8068C80.5569 55.4962 80.0967 55.3409 79.4793 55.3409C78.8391 55.3409 78.3372 55.4811 77.9736 55.7614C77.6099 56.0417 77.3543 56.3409 77.2065 56.6591L75.9338 56.2045C76.1611 55.6742 76.4641 55.2614 76.8429 54.9659C77.2255 54.6667 77.6421 54.4583 78.0929 54.3409C78.5474 54.2197 78.9944 54.1591 79.4338 54.1591C79.7141 54.1591 80.0361 54.1932 80.3997 54.2614C80.7671 54.3258 81.1213 54.4602 81.4622 54.6648C81.8069 54.8693 82.0929 55.178 82.3202 55.5909C82.5474 56.0038 82.6611 56.5568 82.6611 57.25V63H81.3202V61.8182H81.252C81.1611 62.0076 81.0096 62.2102 80.7974 62.4261C80.5853 62.642 80.3031 62.8258 79.9509 62.9773C79.5986 63.1288 79.1687 63.2045 78.6611 63.2045ZM78.8656 62C79.3959 62 79.8429 61.8958 80.2065 61.6875C80.574 61.4792 80.8505 61.2102 81.0361 60.8807C81.2255 60.5511 81.3202 60.2045 81.3202 59.8409V58.6136C81.2634 58.6818 81.1384 58.7443 80.9452 58.8011C80.7558 58.8542 80.5361 58.9015 80.2861 58.9432C80.0399 58.9811 79.7993 59.0152 79.5645 59.0455C79.3334 59.072 79.1459 59.0947 79.002 59.1136C78.6535 59.1591 78.3277 59.233 78.0247 59.3352C77.7255 59.4337 77.483 59.5833 77.2974 59.7841C77.1156 59.9811 77.0247 60.25 77.0247 60.5909C77.0247 61.0568 77.1971 61.4091 77.5418 61.6477C77.8902 61.8826 78.3315 62 78.8656 62ZM89.704 54.2727V55.4091H85.1813V54.2727H89.704ZM86.4994 52.1818H87.8403V60.5C87.8403 60.8788 87.8953 61.1629 88.0051 61.3523C88.1188 61.5379 88.2627 61.6629 88.4369 61.7273C88.615 61.7879 88.8025 61.8182 88.9994 61.8182C89.1472 61.8182 89.2684 61.8106 89.3631 61.7955C89.4578 61.7765 89.5335 61.7614 89.5903 61.75L89.8631 62.9545C89.7722 62.9886 89.6453 63.0227 89.4824 63.0568C89.3195 63.0947 89.1131 63.1136 88.8631 63.1136C88.4843 63.1136 88.1131 63.0322 87.7494 62.8693C87.3896 62.7064 87.0903 62.4583 86.8517 62.125C86.6169 61.7917 86.4994 61.3712 86.4994 60.8636V52.1818ZM98.6847 66.2727C98.4574 66.2727 98.2547 66.2538 98.0767 66.2159C97.8987 66.1818 97.7756 66.1477 97.7074 66.1136L98.0483 64.9318C98.3741 65.0152 98.6619 65.0455 98.9119 65.0227C99.1619 65 99.3835 64.8883 99.5767 64.6875C99.7737 64.4905 99.9536 64.1705 100.116 63.7273L100.366 63.0455L97.1392 54.2727H98.5938L101.003 61.2273H101.094L103.503 54.2727H104.957L101.253 64.2727C101.086 64.7235 100.88 65.0966 100.634 65.392C100.387 65.6913 100.101 65.9129 99.7756 66.0568C99.4536 66.2008 99.09 66.2727 98.6847 66.2727ZM110.76 63.1818C109.972 63.1818 109.281 62.9943 108.686 62.6193C108.095 62.2443 107.633 61.7197 107.3 61.0455C106.97 60.3712 106.806 59.5833 106.806 58.6818C106.806 57.7727 106.97 56.9792 107.3 56.3011C107.633 55.6231 108.095 55.0966 108.686 54.7216C109.281 54.3466 109.972 54.1591 110.76 54.1591C111.548 54.1591 112.238 54.3466 112.828 54.7216C113.423 55.0966 113.885 55.6231 114.215 56.3011C114.548 56.9792 114.715 57.7727 114.715 58.6818C114.715 59.5833 114.548 60.3712 114.215 61.0455C113.885 61.7197 113.423 62.2443 112.828 62.6193C112.238 62.9943 111.548 63.1818 110.76 63.1818ZM110.76 61.9773C111.359 61.9773 111.851 61.8239 112.238 61.517C112.624 61.2102 112.91 60.8068 113.095 60.3068C113.281 59.8068 113.374 59.2652 113.374 58.6818C113.374 58.0985 113.281 57.5549 113.095 57.0511C112.91 56.5473 112.624 56.1402 112.238 55.8295C111.851 55.5189 111.359 55.3636 110.76 55.3636C110.162 55.3636 109.669 55.5189 109.283 55.8295C108.897 56.1402 108.611 56.5473 108.425 57.0511C108.239 57.5549 108.147 58.0985 108.147 58.6818C108.147 59.2652 108.239 59.8068 108.425 60.3068C108.611 60.8068 108.897 61.2102 109.283 61.517C109.669 61.8239 110.162 61.9773 110.76 61.9773ZM123.062 59.4318V54.2727H124.403V63H123.062V61.5227H122.971C122.766 61.9659 122.448 62.3428 122.016 62.6534C121.584 62.9602 121.039 63.1136 120.38 63.1136C119.834 63.1136 119.35 62.9943 118.925 62.7557C118.501 62.5133 118.168 62.1496 117.925 61.6648C117.683 61.1761 117.562 60.5606 117.562 59.8182V54.2727H118.903V59.7273C118.903 60.3636 119.081 60.8712 119.437 61.25C119.796 61.6288 120.255 61.8182 120.812 61.8182C121.145 61.8182 121.484 61.733 121.829 61.5625C122.177 61.392 122.469 61.1307 122.704 60.7784C122.942 60.4261 123.062 59.9773 123.062 59.4318ZM134.299 57.75V63H132.959V54.2727H134.254V55.6364H134.368C134.572 55.1932 134.883 54.8371 135.299 54.5682C135.716 54.2955 136.254 54.1591 136.913 54.1591C137.504 54.1591 138.021 54.2803 138.464 54.5227C138.907 54.7614 139.252 55.125 139.498 55.6136C139.745 56.0985 139.868 56.7121 139.868 57.4545V63H138.527V57.5455C138.527 56.8598 138.349 56.3258 137.993 55.9432C137.637 55.5568 137.148 55.3636 136.527 55.3636C136.099 55.3636 135.716 55.4564 135.379 55.642C135.046 55.8277 134.782 56.0985 134.589 56.4545C134.396 56.8106 134.299 57.2424 134.299 57.75ZM146.777 63.1818C145.936 63.1818 145.211 62.9962 144.601 62.625C143.995 62.25 143.527 61.7273 143.197 61.0568C142.872 60.3826 142.709 59.5985 142.709 58.7045C142.709 57.8106 142.872 57.0227 143.197 56.3409C143.527 55.6553 143.985 55.1212 144.572 54.7386C145.163 54.3523 145.853 54.1591 146.641 54.1591C147.095 54.1591 147.544 54.2348 147.987 54.3864C148.43 54.5379 148.834 54.7841 149.197 55.125C149.561 55.4621 149.851 55.9091 150.067 56.4659C150.283 57.0227 150.391 57.7083 150.391 58.5227V59.0909H143.663V57.9318H149.027C149.027 57.4394 148.929 57 148.732 56.6136C148.538 56.2273 148.262 55.9223 147.902 55.6989C147.546 55.4754 147.125 55.3636 146.641 55.3636C146.107 55.3636 145.644 55.4962 145.254 55.7614C144.868 56.0227 144.571 56.3636 144.362 56.7841C144.154 57.2045 144.05 57.6553 144.05 58.1364V58.9091C144.05 59.5682 144.163 60.1269 144.391 60.5852C144.622 61.0398 144.942 61.3864 145.351 61.625C145.76 61.8598 146.235 61.9773 146.777 61.9773C147.129 61.9773 147.447 61.928 147.732 61.8295C148.019 61.7273 148.268 61.5758 148.476 61.375C148.684 61.1705 148.845 60.9167 148.959 60.6136L150.254 60.9773C150.118 61.4167 149.889 61.803 149.567 62.1364C149.245 62.4659 148.847 62.7235 148.374 62.9091C147.9 63.0909 147.368 63.1818 146.777 63.1818ZM156.889 63.1818C156.049 63.1818 155.323 62.9962 154.713 62.625C154.107 62.25 153.639 61.7273 153.31 61.0568C152.984 60.3826 152.821 59.5985 152.821 58.7045C152.821 57.8106 152.984 57.0227 153.31 56.3409C153.639 55.6553 154.098 55.1212 154.685 54.7386C155.276 54.3523 155.965 54.1591 156.753 54.1591C157.208 54.1591 157.657 54.2348 158.1 54.3864C158.543 54.5379 158.946 54.7841 159.31 55.125C159.674 55.4621 159.963 55.9091 160.179 56.4659C160.395 57.0227 160.503 57.7083 160.503 58.5227V59.0909H153.776V57.9318H159.139C159.139 57.4394 159.041 57 158.844 56.6136C158.651 56.2273 158.374 55.9223 158.014 55.6989C157.658 55.4754 157.238 55.3636 156.753 55.3636C156.219 55.3636 155.757 55.4962 155.367 55.7614C154.98 56.0227 154.683 56.3636 154.475 56.7841C154.266 57.2045 154.162 57.6553 154.162 58.1364V58.9091C154.162 59.5682 154.276 60.1269 154.503 60.5852C154.734 61.0398 155.054 61.3864 155.463 61.625C155.872 61.8598 156.348 61.9773 156.889 61.9773C157.242 61.9773 157.56 61.928 157.844 61.8295C158.132 61.7273 158.38 61.5758 158.588 61.375C158.797 61.1705 158.958 60.9167 159.071 60.6136L160.367 60.9773C160.23 61.4167 160.001 61.803 159.679 62.1364C159.357 62.4659 158.96 62.7235 158.486 62.9091C158.013 63.0909 157.48 63.1818 156.889 63.1818ZM166.638 63.1818C165.911 63.1818 165.269 62.9981 164.712 62.6307C164.155 62.2595 163.72 61.7367 163.405 61.0625C163.091 60.3845 162.934 59.5833 162.934 58.6591C162.934 57.7424 163.091 56.947 163.405 56.2727C163.72 55.5985 164.157 55.0777 164.718 54.7102C165.279 54.3428 165.926 54.1591 166.661 54.1591C167.229 54.1591 167.678 54.2538 168.008 54.4432C168.341 54.6288 168.595 54.8409 168.769 55.0795C168.947 55.3144 169.085 55.5076 169.184 55.6591H169.297V51.3636H170.638V63H169.343V61.6591H169.184C169.085 61.8182 168.945 62.0189 168.763 62.2614C168.582 62.5 168.322 62.714 167.985 62.9034C167.648 63.089 167.199 63.1818 166.638 63.1818ZM166.82 61.9773C167.358 61.9773 167.813 61.8371 168.184 61.5568C168.555 61.2727 168.837 60.8807 169.03 60.3807C169.224 59.8769 169.32 59.2955 169.32 58.6364C169.32 57.9848 169.225 57.4148 169.036 56.9261C168.847 56.4337 168.566 56.0511 168.195 55.7784C167.824 55.5019 167.366 55.3636 166.82 55.3636C166.252 55.3636 165.779 55.5095 165.4 55.8011C165.025 56.089 164.743 56.4811 164.553 56.9773C164.368 57.4697 164.275 58.0227 164.275 58.6364C164.275 59.2576 164.369 59.822 164.559 60.3295C164.752 60.8333 165.036 61.2348 165.411 61.5341C165.79 61.8295 166.26 61.9773 166.82 61.9773Z" fill="#424242"/>
</svg>
